<?xml version="1.0" encoding="UTF-8" standalone="no"?>
<svg
   xmlns:dc="http://purl.org/dc/elements/1.1/"
   xmlns:cc="http://creativecommons.org/ns#"
   xmlns:rdf="http://www.w3.org/1999/02/22-rdf-syntax-ns#"
   xmlns:svg="http://www.w3.org/2000/svg"
   xmlns="http://www.w3.org/2000/svg"
   xmlns:sodipodi="http://sodipodi.sourceforge.net/DTD/sodipodi-0.dtd"
   xmlns:inkscape="http://www.inkscape.org/namespaces/inkscape"
   version="1.1"
   width="601"
   height="402"
   id="svg92"
   sodipodi:docname="clustering-wiki.svg"
   inkscape:version="0.92.3 (d244b95, 2018-08-02)">
  <metadata
     id="metadata98">
    <rdf:RDF>
      <cc:Work
         rdf:about="">
        <dc:format>image/svg+xml</dc:format>
        <dc:type
           rdf:resource="http://purl.org/dc/dcmitype/StillImage" />
      </cc:Work>
    </rdf:RDF>
  </metadata>
  <defs
     id="defs96" />
  <sodipodi:namedview
     pagecolor="#ffffff"
     bordercolor="#666666"
     borderopacity="1"
     objecttolerance="10"
     gridtolerance="10"
     guidetolerance="10"
     inkscape:pageopacity="0"
     inkscape:pageshadow="2"
     inkscape:window-width="640"
     inkscape:window-height="480"
     id="namedview94"
     showgrid="false"
     inkscape:zoom="0.58706468"
     inkscape:cx="300.5"
     inkscape:cy="201"
     inkscape:window-x="0"
     inkscape:window-y="0"
     inkscape:window-maximized="0"
     inkscape:current-layer="svg92" />
  <g
     id="g90"
     stroke-width="2px"
     stroke="#000000">
    <g
       id="g38"
       fill="#7f7f7f">
      <rect
         id="rect2"
         y="70"
         x="91"
         height="19"
         width="18" />
      <rect
         id="rect4"
         y="66"
         x="150"
         height="19"
         width="18" />
      <rect
         id="rect6"
         y="91"
         x="129"
         height="19"
         width="18" />
      <rect
         id="rect8"
         y="88"
         x="173"
         height="19"
         width="18" />
      <rect
         id="rect10"
         y="105"
         x="154"
         height="19"
         width="18" />
      <rect
         id="rect12"
         y="104"
         x="100"
         height="19"
         width="18" />
      <rect
         id="rect14"
         y="131"
         x="117"
         height="19"
         width="18" />
      <rect
         id="rect16"
         y="129"
         x="144"
         height="19"
         width="18" />
      <rect
         id="rect18"
         y="114"
         x="180"
         height="19"
         width="18" />
      <rect
         id="rect20"
         y="155"
         x="147"
         height="19"
         width="18" />
      <rect
         id="rect22"
         y="164"
         x="114"
         height="19"
         width="18" />
      <rect
         id="rect24"
         y="151"
         x="91"
         height="19"
         width="18" />
      <rect
         id="rect26"
         y="155"
         x="186"
         height="19"
         width="18" />
      <rect
         id="rect28"
         y="145"
         x="176"
         height="19"
         width="18" />
      <rect
         id="rect30"
         y="173"
         x="139"
         height="19"
         width="18" />
      <rect
         id="rect32"
         y="234"
         x="203"
         height="19"
         width="18" />
      <rect
         id="rect34"
         y="274"
         x="129"
         height="19"
         width="18" />
      <rect
         id="rect36"
         y="143"
         x="271"
         height="19"
         width="18" />
    </g>
    <g
       id="g62"
       fill="#7f7f7f">
      <rect
         id="rect40"
         y="203"
         x="315"
         height="19"
         width="18" />
      <rect
         id="rect42"
         y="243"
         x="359"
         height="19"
         width="18" />
      <rect
         id="rect44"
         y="254"
         x="322"
         height="19"
         width="18" />
      <rect
         id="rect46"
         y="288"
         x="308"
         height="19"
         width="18" />
      <rect
         id="rect48"
         y="326"
         x="301"
         height="19"
         width="18" />
      <rect
         id="rect50"
         y="297"
         x="342"
         height="19"
         width="18" />
      <rect
         id="rect52"
         y="273"
         x="348"
         height="19"
         width="18" />
      <rect
         id="rect54"
         y="270"
         x="372"
         height="19"
         width="18" />
      <rect
         id="rect56"
         y="308"
         x="375"
         height="19"
         width="18" />
      <rect
         id="rect58"
         y="329"
         x="334"
         height="19"
         width="18" />
      <rect
         id="rect60"
         y="320"
         x="455"
         height="19"
         width="18" />
    </g>
    <g
       id="g88"
       fill="#7f7f7f">
      <rect
         id="rect64"
         y="211"
         x="494"
         height="19"
         width="18" />
      <rect
         id="rect66"
         y="181"
         x="424"
         height="19"
         width="18" />
      <rect
         id="rect68"
         y="144"
         x="451"
         height="19"
         width="18" />
      <rect
         id="rect70"
         y="135"
         x="475"
         height="19"
         width="18" />
      <rect
         id="rect72"
         y="113"
         x="464"
         height="19"
         width="18" />
      <rect
         id="rect74"
         y="107"
         x="438"
         height="19"
         width="18" />
      <rect
         id="rect76"
         y="123"
         x="417"
         height="19"
         width="18" />
      <rect
         id="rect78"
         y="95"
         x="395"
         height="19"
         width="18" />
      <rect
         id="rect80"
         y="65"
         x="410"
         height="19"
         width="18" />
      <rect
         id="rect82"
         y="67"
         x="439"
         height="19"
         width="18" />
      <rect
         id="rect84"
         y="89"
         x="466"
         height="19"
         width="18" />
      <rect
         id="rect86"
         y="65"
         x="343"
         height="19"
         width="18" />
    </g>
  </g>
</svg>
